<svg width="32" height="32" viewBox="0 0 32 32" fill="none" xmlns="http://www.w3.org/2000/svg">
<rect width="32" height="32" rx="6" fill="#3B82F6" fill-opacity="0.1"/>
<path d="M10.6472 14.3002L12.2722 14.9877C12.4667 14.5988 12.668 14.2238 12.8764 13.8627C13.0847 13.5016 13.3139 13.1405 13.5639 12.7794L12.3972 12.5502L10.6472 14.3002ZM13.6056 16.0294L15.9805 18.3836C16.5639 18.1613 17.1889 17.8211 17.8555 17.3627C18.5222 16.9044 19.1472 16.3836 19.7305 15.8002C20.7028 14.828 21.4632 13.7482 22.0118 12.5607C22.5604 11.3732 22.8 10.2794 22.7305 9.27941C21.7305 9.20996 20.6333 9.44954 19.4389 9.99816C18.2444 10.5468 17.1611 11.3072 16.1889 12.2794C15.6056 12.8627 15.0847 13.4877 14.6264 14.1544C14.168 14.8211 13.8278 15.4461 13.6056 16.0294ZM17.3139 14.6752C16.9944 14.3558 16.8347 13.9634 16.8347 13.4982C16.8347 13.0329 16.9944 12.6405 17.3139 12.3211C17.6333 12.0016 18.0292 11.8419 18.5014 11.8419C18.9736 11.8419 19.3694 12.0016 19.6889 12.3211C20.0083 12.6405 20.168 13.0329 20.168 13.4982C20.168 13.9634 20.0083 14.3558 19.6889 14.6752C19.3694 14.9947 18.9736 15.1544 18.5014 15.1544C18.0292 15.1544 17.6333 14.9947 17.3139 14.6752ZM17.7097 21.3627L19.4597 19.6127L19.2305 18.4461C18.8694 18.6961 18.5083 18.9218 18.1472 19.1232C17.7861 19.3245 17.4111 19.5225 17.0222 19.7169L17.7097 21.3627ZM24.2306 7.75857C24.4944 9.43913 24.3312 11.0745 23.741 12.6648C23.1507 14.2551 22.1333 15.7725 20.6889 17.2169L21.1055 19.2794C21.1611 19.5572 21.1472 19.828 21.0639 20.0919C20.9806 20.3558 20.8417 20.585 20.6472 20.7794L17.1472 24.2794L15.3972 20.1752L11.8347 16.6127L7.73055 14.8627L11.2097 11.3627C11.4042 11.1683 11.6368 11.0294 11.9076 10.9461C12.1785 10.8627 12.4528 10.8488 12.7306 10.9044L14.7931 11.3211C16.2375 9.87663 17.7514 8.85579 19.3347 8.25857C20.918 7.66135 22.55 7.49468 24.2306 7.75857ZM9.20972 19.2586C9.69583 18.7725 10.2896 18.5259 10.991 18.519C11.6924 18.512 12.2861 18.7516 12.7722 19.2377C13.2583 19.7238 13.4979 20.3176 13.491 21.019C13.484 21.7204 13.2375 22.3141 12.7514 22.8002C12.4042 23.1475 11.8243 23.4461 11.0118 23.6961C10.1993 23.9461 9.07777 24.1683 7.64722 24.3627C7.84166 22.9322 8.06388 21.8107 8.31388 20.9982C8.56388 20.1857 8.86249 19.6058 9.20972 19.2586ZM10.3972 20.4252C10.2583 20.5641 10.1194 20.8176 9.98055 21.1857C9.84166 21.5537 9.74444 21.9252 9.68888 22.3002C10.0639 22.2447 10.4354 22.1509 10.8035 22.019C11.1715 21.887 11.425 21.7516 11.5639 21.6127C11.7306 21.4461 11.8208 21.2447 11.8347 21.0086C11.8486 20.7725 11.7722 20.5711 11.6056 20.4044C11.4389 20.2377 11.2375 20.1579 11.0014 20.1648C10.7653 20.1718 10.5639 20.2586 10.3972 20.4252Z" fill="#3B82F6"/>
</svg>
