<svg width="22" height="21" viewBox="0 0 22 21" fill="none" xmlns="http://www.w3.org/2000/svg">
<path d="M9.65991 1.44714C9.70264 1.22784 9.82402 1.02975 10.003 0.887211C10.182 0.744682 10.4074 0.666656 10.6401 0.666656C10.8727 0.666656 11.0981 0.744682 11.2771 0.887211C11.4561 1.02975 11.5775 1.22784 11.6202 1.44714L12.6682 6.76071C12.7426 7.13848 12.934 7.48598 13.2176 7.75783C13.5011 8.02966 13.8634 8.21326 14.2576 8.28462L19.7993 9.28941C20.028 9.33036 20.2347 9.44673 20.3834 9.61836C20.5321 9.79 20.6134 10.0061 20.6134 10.2292C20.6134 10.4523 20.5321 10.6683 20.3834 10.84C20.2347 11.0116 20.028 11.128 19.7993 11.1689L14.2576 12.1737C13.8634 12.2451 13.5011 12.4287 13.2176 12.7005C12.934 12.9724 12.7426 13.3199 12.6682 13.6976L11.6202 19.0113C11.5775 19.2305 11.4561 19.4286 11.2771 19.5711C11.0981 19.7136 10.8727 19.7917 10.6401 19.7917C10.4074 19.7917 10.182 19.7136 10.003 19.5711C9.82402 19.4286 9.70264 19.2305 9.65991 19.0113L8.61198 13.6976C8.53754 13.3199 8.34607 12.9724 8.06254 12.7005C7.77902 12.4287 7.41661 12.2451 7.02261 12.1737L1.48078 11.1689C1.25204 11.128 1.04546 11.0116 0.896792 10.84C0.748126 10.6683 0.666748 10.4523 0.666748 10.2292C0.666748 10.0061 0.748126 9.79 0.896792 9.61836C1.04546 9.44673 1.25204 9.33036 1.48078 9.28941L7.02261 8.28462C7.41661 8.21326 7.77902 8.02966 8.06254 7.75783C8.34607 7.48598 8.53754 7.13848 8.61198 6.76071L9.65991 1.44714Z" stroke="#00CC27" stroke-width="1.33333" stroke-linecap="round" stroke-linejoin="round"/>
<path d="M18.6172 0.669037V4.49313" stroke="#00CC27" stroke-width="1.33333" stroke-linecap="round" stroke-linejoin="round"/>
<path d="M20.6112 2.58102H16.6228" stroke="#00CC27" stroke-width="1.33333" stroke-linecap="round" stroke-linejoin="round"/>
<path d="M2.66386 19.7895C3.76521 19.7895 4.65804 18.9334 4.65804 17.8774C4.65804 16.8215 3.76521 15.9654 2.66386 15.9654C1.5625 15.9654 0.669678 16.8215 0.669678 17.8774C0.669678 18.9334 1.5625 19.7895 2.66386 19.7895Z" stroke="#00CC27" stroke-width="1.33333" stroke-linecap="round" stroke-linejoin="round"/>
</svg>
